<svg xmlns="http://www.w3.org/2000/svg" version="1.1" xmlns:xlink="http://www.w3.org/1999/xlink" xmlns:svgjs="http://svgjs.com/svgjs" width="512.000000pt" height="512.000000pt"><svg version="1.0" xmlns="http://www.w3.org/2000/svg" width="512.000000pt" height="512.000000pt" viewBox="0 0 512.000000 512.000000" preserveAspectRatio="xMidYMid meet">

<g transform="translate(0.000000,512.000000) scale(0.100000,-0.100000)" fill="#000000" stroke="none">
<path d="M1005 4895 c-50 -18 -83 -58 -90 -110 -3 -22 -5 -1039 -3 -2260 l3
-2220 22 -31 c45 -63 -56 -59 1623 -59 1679 0 1578 -4 1623 59 l22 31 0 2255
c0 2198 0 2256 -19 2283 -10 15 -33 36 -50 45 -29 16 -143 17 -1561 19 -1302
2 -1536 0 -1570 -12z m3055 -2335 l0 -2200 -1500 0 -1500 0 0 2200 0 2200
1500 0 1500 0 0 -2200z"></path>
<path d="M1331 4494 l-31 -26 0 -407 c0 -453 -2 -441 68 -461 51 -14 2333 -14
2384 0 70 20 68 8 68 461 l0 407 -31 26 -31 26 -1198 0 -1198 0 -31 -26z
m2349 -434 l0 -320 -1120 0 -1120 0 0 320 0 320 1120 0 1120 0 0 -320z"></path>
<path d="M1495 3276 c-89 -41 -135 -114 -135 -216 0 -253 335 -330 453 -105
29 56 28 155 -1 211 -60 117 -199 165 -317 110z m145 -131 c74 -39 65 -149
-14 -175 -41 -13 -75 -2 -105 36 -37 47 -22 111 33 138 39 20 50 20 86 1z"></path>
<path d="M2132 3274 c-84 -42 -132 -121 -132 -216 1 -159 157 -273 311 -226
55 16 118 73 145 132 44 95 27 183 -51 263 -77 79 -175 96 -273 47z m166 -137
c8 -6 21 -27 29 -44 39 -94 -88 -171 -158 -96 -44 46 -25 128 36 154 24 10 73
3 93 -14z"></path>
<path d="M2795 3286 c-23 -9 -60 -36 -85 -64 -73 -78 -89 -166 -46 -258 45
-96 143 -153 246 -141 223 27 288 323 96 441 -58 36 -147 45 -211 22z m155
-161 c50 -50 21 -145 -48 -158 -43 -8 -91 17 -108 58 -14 33 -13 40 3 73 32
66 102 78 153 27z"></path>
<path d="M3441 3286 c-93 -34 -155 -123 -155 -226 0 -250 337 -332 449 -110
29 57 34 149 12 203 -48 114 -189 175 -306 133z m124 -141 c55 -27 71 -92 34
-139 -30 -38 -64 -49 -105 -36 -39 13 -64 48 -64 90 0 41 14 66 48 84 35 19
47 19 87 1z"></path>
<path d="M1504 2566 c-47 -21 -105 -77 -125 -121 -11 -24 -19 -64 -19 -101 -1
-215 253 -321 405 -169 118 118 82 316 -70 386 -48 22 -146 24 -191 5z m157
-155 c38 -39 39 -87 3 -130 -71 -85 -204 11 -150 108 31 56 102 67 147 22z"></path>
<path d="M2136 2560 c-57 -29 -85 -58 -112 -115 -56 -119 -9 -255 110 -318 56
-29 155 -29 211 0 87 46 129 117 130 219 0 61 -4 77 -30 120 -45 72 -109 108
-199 112 -55 2 -80 -2 -110 -18z m163 -147 c67 -62 29 -163 -61 -163 -72 0
-117 73 -83 135 32 60 96 72 144 28z"></path>
<path d="M2771 2554 c-174 -87 -172 -335 4 -427 56 -29 155 -29 211 0 119 63
166 198 110 318 -57 124 -200 171 -325 109z m153 -125 c34 -16 61 -69 52 -103
-18 -73 -110 -102 -161 -51 -40 39 -37 98 6 138 31 29 63 34 103 16z"></path>
<path d="M3430 2565 c-155 -70 -194 -271 -75 -390 116 -116 309 -86 380 60 24
47 27 64 23 124 -4 82 -35 135 -106 186 -37 25 -54 30 -115 32 -49 2 -83 -2
-107 -12z m139 -139 c56 -29 67 -102 22 -147 -42 -42 -99 -41 -135 2 -36 43
-35 91 3 130 33 32 67 37 110 15z"></path>
<path d="M1545 1861 c-73 -19 -142 -77 -169 -143 -22 -51 -20 -143 3 -193 76
-164 311 -186 413 -38 105 154 13 356 -172 377 -25 2 -58 1 -75 -3z m116 -170
c21 -22 29 -39 29 -66 0 -27 -8 -44 -29 -66 -22 -21 -39 -29 -66 -29 -27 0
-44 8 -66 29 -21 22 -29 39 -29 66 0 27 8 44 29 66 22 21 39 29 66 29 27 0 44
-8 66 -29z"></path>
<path d="M2160 1851 c-157 -55 -211 -254 -103 -380 98 -115 279 -111 370 7
145 191 -42 452 -267 373z m123 -142 c57 -26 67 -108 17 -151 -94 -85 -215 48
-125 138 26 26 68 31 108 13z"></path>
<path d="M2817 1856 c-60 -16 -115 -60 -147 -117 -20 -35 -25 -58 -25 -115 0
-61 4 -77 30 -119 151 -244 515 -76 433 199 -19 62 -91 130 -157 150 -64 19
-71 19 -134 2z m128 -160 c48 -48 40 -122 -16 -151 -42 -22 -75 -18 -109 13
-35 30 -42 75 -20 116 26 50 105 62 145 22z"></path>
<path d="M3459 1857 c-206 -58 -238 -338 -49 -441 120 -65 273 -15 331 109 23
50 25 142 3 193 -45 108 -172 170 -285 139z m132 -166 c21 -22 29 -39 29 -66
0 -51 -44 -95 -95 -95 -51 0 -95 44 -95 95 0 51 44 95 95 95 27 0 44 -8 66
-29z"></path>
<path d="M1547 1189 c-77 -18 -143 -72 -171 -141 -20 -48 -20 -138 0 -186 19
-47 67 -97 119 -125 38 -21 53 -22 388 -25 230 -2 365 0 401 8 69 14 127 56
163 117 23 40 28 59 28 118 0 59 -5 78 -28 118 -35 60 -93 102 -158 116 -61
13 -687 13 -742 0z m754 -167 c25 -22 31 -36 31 -67 0 -31 -6 -45 -31 -67
l-31 -28 -356 0 -356 0 -29 29 c-21 22 -29 39 -29 66 0 27 8 44 29 66 l29 29
356 0 356 0 31 -28z"></path>
<path d="M2818 1186 c-61 -17 -111 -56 -145 -114 -23 -39 -28 -59 -28 -117 0
-59 5 -78 28 -118 86 -146 281 -164 389 -37 152 177 -19 448 -244 386z m116
-151 c53 -35 57 -106 9 -151 -58 -53 -155 -9 -155 71 0 73 85 120 146 80z"></path>
<path d="M3479 1191 c-53 -11 -122 -55 -152 -98 -83 -121 -45 -278 85 -348
122 -67 279 -12 332 117 20 48 20 138 0 186 -42 101 -158 163 -265 143z m112
-170 c21 -22 29 -39 29 -66 0 -51 -44 -95 -95 -95 -51 0 -95 44 -95 95 0 27 8
44 29 66 41 40 91 40 132 0z"></path>
</g>
</svg><style>@media (prefers-color-scheme: light) { :root { filter: none; } }
@media (prefers-color-scheme: dark) { :root { filter: invert(100%); } }
</style></svg>